<svg xmlns="http://www.w3.org/2000/svg" xmlns:xlink="http://www.w3.org/1999/xlink" width="500" zoomAndPan="magnify" viewBox="0 0 375 374.999991" height="500" preserveAspectRatio="xMidYMid meet" version="1.0"><defs><clipPath id="a8c770cb6e"><path d="M 57 97.5 L 95 97.5 L 95 277.5 L 57 277.5 Z M 57 97.5 " clip-rule="nonzero"/></clipPath><clipPath id="196e797a05"><path d="M 280 97.5 L 318 97.5 L 318 277.5 L 280 277.5 Z M 280 97.5 " clip-rule="nonzero"/></clipPath><clipPath id="1678e477fa"><path d="M 81.230469 37.5 L 295 37.5 L 295 309 L 81.230469 309 Z M 81.230469 37.5 " clip-rule="nonzero"/></clipPath><clipPath id="a1f1e25666"><path d="M 123 113 L 252 113 L 252 255.105469 L 123 255.105469 Z M 123 113 " clip-rule="nonzero"/></clipPath><clipPath id="ff98b8cfd2"><path d="M 96.238281 82.605469 L 278.488281 82.605469 L 278.488281 174 L 96.238281 174 Z M 96.238281 82.605469 " clip-rule="nonzero"/></clipPath></defs><path fill="#000000" d="M 99.785156 204.636719 L 275.214844 204.636719 L 275.214844 170.449219 L 99.785156 170.449219 L 99.785156 204.636719 " fill-opacity="1" fill-rule="nonzero"/><path fill="#000000" d="M 366.445312 170.449219 L 354.636719 170.449219 L 354.636719 204.636719 L 366.445312 204.636719 C 371.160156 204.636719 375 200.800781 375 196.082031 L 375 179.003906 C 375 174.285156 371.160156 170.449219 366.445312 170.449219 " fill-opacity="1" fill-rule="nonzero"/><path fill="#000000" d="M 0 179.003906 L 0 196.082031 C 0 200.800781 3.839844 204.636719 8.554688 204.636719 L 20.363281 204.636719 L 20.363281 170.449219 L 8.554688 170.449219 C 3.839844 170.449219 0 174.285156 0 179.003906 " fill-opacity="1" fill-rule="nonzero"/><path fill="#000000" d="M 42.277344 118.476562 L 36.035156 118.476562 C 30.261719 118.476562 25.578125 123.132812 25.578125 128.90625 L 25.578125 246.179688 C 25.578125 251.921875 30.261719 256.609375 36.035156 256.609375 L 42.277344 256.609375 C 48.046875 256.609375 52.734375 251.921875 52.734375 246.179688 L 52.734375 128.90625 C 52.734375 123.132812 48.046875 118.476562 42.277344 118.476562 " fill-opacity="1" fill-rule="nonzero"/><g clip-path="url(#a8c770cb6e)"><path fill="#000000" d="M 84.140625 97.5 L 68.410156 97.5 C 62.636719 97.5 57.949219 102.1875 57.949219 107.957031 L 57.949219 267.128906 C 57.949219 272.898438 62.636719 277.585938 68.410156 277.585938 L 84.140625 277.585938 C 89.882812 277.585938 94.570312 272.898438 94.570312 267.128906 L 94.570312 107.957031 C 94.570312 102.1875 89.882812 97.5 84.140625 97.5 " fill-opacity="1" fill-rule="nonzero"/></g><path fill="#000000" d="M 338.992188 118.476562 L 332.695312 118.476562 C 326.953125 118.476562 322.265625 123.132812 322.265625 128.90625 L 322.265625 246.179688 C 322.265625 251.921875 326.953125 256.609375 332.695312 256.609375 L 338.992188 256.609375 C 344.734375 256.609375 349.421875 251.921875 349.421875 246.179688 L 349.421875 128.90625 C 349.421875 123.132812 344.734375 118.476562 338.992188 118.476562 " fill-opacity="1" fill-rule="nonzero"/><g clip-path="url(#196e797a05)"><path fill="#000000" d="M 306.589844 97.5 L 290.859375 97.5 C 285.117188 97.5 280.429688 102.1875 280.429688 107.957031 L 280.429688 267.128906 C 280.429688 272.898438 285.117188 277.585938 290.859375 277.585938 L 306.589844 277.585938 C 312.363281 277.585938 317.050781 272.898438 317.050781 267.128906 L 317.050781 107.957031 C 317.050781 102.1875 312.363281 97.5 306.589844 97.5 " fill-opacity="1" fill-rule="nonzero"/></g><g clip-path="url(#1678e477fa)"><path fill="#004aad" d="M 292.75 201.117188 C 288.546875 179.777344 277.589844 160.695312 262.371094 145.992188 L 275.730469 113.722656 C 282.765625 96.671875 280.878906 77.363281 270.636719 62 C 260.398438 46.667969 243.261719 37.515625 224.808594 37.515625 L 151.347656 37.515625 C 132.894531 37.515625 115.761719 46.667969 105.519531 62 C 95.277344 77.335938 93.359375 96.671875 100.425781 113.722656 L 113.902344 146.25 C 93.789062 165.703125 81.230469 192.878906 81.230469 223.03125 C 81.230469 253.09375 93.648438 280.214844 113.671875 299.554688 C 120.078125 305.761719 128.660156 309.277344 137.617188 309.277344 L 238.597656 309.277344 C 247.695312 309.277344 256.390625 305.558594 262.886719 299.210938 C 287.402344 275.265625 300.359375 239.5625 292.75 201.117188 Z M 135.355469 99.246094 C 133.097656 93.8125 133.695312 87.890625 136.957031 83 C 140.21875 78.105469 145.453125 75.304688 151.347656 75.304688 L 224.808594 75.304688 C 230.703125 75.304688 235.9375 78.105469 239.199219 83 C 242.460938 87.890625 243.03125 93.8125 240.800781 99.246094 L 230.273438 124.679688 C 224.808594 122.363281 219.175781 120.386719 213.28125 119.042969 C 189.109375 113.550781 166.023438 116.355469 146.027344 124.9375 Z M 135.355469 99.246094 " fill-opacity="1" fill-rule="nonzero"/></g><g clip-path="url(#a1f1e25666)"><path fill="#000000" d="M 251.34375 170.289062 Z M 251.34375 170.289062 L 187.382812 113.628906 L 123.382812 170.3125 L 123.382812 251.3125 C 123.382812 253.402344 125.070312 255.082031 127.164062 255.082031 L 167.160156 255.082031 L 167.160156 219.566406 C 167.160156 217.476562 168.839844 215.785156 170.929688 215.785156 L 203.796875 215.785156 C 205.886719 215.785156 207.5625 217.476562 207.5625 219.566406 L 207.5625 255.082031 L 247.574219 255.082031 C 249.664062 255.082031 251.34375 253.402344 251.34375 251.3125 L 251.34375 170.285156 Z M 123.382812 170.316406 Z M 123.382812 170.316406 " fill-opacity="1" fill-rule="nonzero"/></g><g clip-path="url(#ff98b8cfd2)"><path fill="#000000" d="M 187.011719 82.621094 L 96.238281 163.011719 L 105.800781 173.800781 L 187.382812 101.542969 L 268.945312 173.800781 L 278.488281 163.011719 L 187.734375 82.621094 L 187.382812 83.027344 Z M 187.011719 82.621094 " fill-opacity="1" fill-rule="nonzero"/></g><path fill="#000000" d="M 123.382812 94.191406 L 146.390625 94.191406 L 146.191406 107.824219 L 123.382812 128.4375 Z M 123.382812 94.191406 " fill-opacity="1" fill-rule="nonzero"/></svg>